<svg xmlns="http://www.w3.org/2000/svg" xmlns:xlink="http://www.w3.org/1999/xlink" version="1.1" x="0px" y="0px" width="500px" height="421px" viewBox="0 0 500 421" enable-background="new 0 0 500 421" xml:space="preserve">
<g xmlns="http://www.w3.org/2000/svg" id="BACKGROUND">
</g>
<g xmlns="http://www.w3.org/2000/svg" id="DESIGNED_BY_FREEPIK">
	<g>
		<path fill="#F2F2F2" d="M84.526,142.496c0,0,7.935-1.85,12.821-6.373c5.562-5.145,5.549-8.637,5.549-8.637l14.929,8.445    c0,0-0.196,2.84-4.747,8.816c-4.768,6.262-9.715,8.287-12.805,9.252c-0.799,0.25-1.27,0.361-1.27,0.361L84.526,142.496z"/>
		<path fill="#F2F2F2" d="M331.057,100.564c0,0,8.136,0.432,14.088-2.551c6.773-3.395,7.733-6.752,7.733-6.752l11.989,12.264    c0,0-0.979,2.676-7.013,7.148c-6.322,4.688-11.638,5.258-14.874,5.324c-0.836,0.016-1.32-0.006-1.32-0.006L331.057,100.564z"/>
		<path fill="#F2F2F2" d="M366.213,124.484c0,0,2.291,7.818,7.08,12.445c5.449,5.264,8.935,5.055,8.935,5.055l-7.593,15.379    c0,0-2.849-0.037-9.069-4.244c-6.52-4.41-8.82-9.234-9.956-12.266c-0.294-0.783-0.433-1.248-0.433-1.248L366.213,124.484z"/>
		<g opacity="0.3">
			<path fill="#1333c3" d="M306.642,241.855c-0.08,1.869-0.21,5.59-0.32,8.869h-89.7v7.031h4.511v35.898     c-21.58-12.398-34.32-19.029-63.45-14.559c-7.851,1.209-15.4,2.18-22.641,2.66c-0.22-2.17-0.51-4.932-0.829-7.811     c0.26-0.131,0.51-0.26,0.75-0.4c0,0-4.2-25.619-6.23-33.119l0.59-0.34c0,0-0.24-2.602-0.5-6.131     c2.76-0.301,13.11-1.541,14.21-3.189c0.62-0.93,0.931-1.961,1.07-2.76l4.14-0.771l1-3.289l80.62-0.42v18.42     c0,1.65,1.34,2.99,2.99,2.99h9.16l-2.471,5.609h24.681v-1.6h-14.34l1.689-4.01h16.78c1.649,0,2.99-1.34,2.99-2.99v-18.631     l11.38-0.059l6.939,8.809c1.2,1.521,3.351,1.881,4.98,0.84c3-1.92,7.8-5.029,11.649-7.77     C306.541,231.074,306.821,237.734,306.642,241.855z"/>
			<path fill="#1333c3" d="M103.382,240.846c-2.351,6.639-4.87,18.619-2.42,36.33c0,0,0.72,0.1,1.979,0.229     c0.05,0.58,0.1,1.182,0.15,1.791c-10.591-3.031-20.261-8.711-28.971-18.371c-19.76-21.91-15.1-61.219,29.391-77.1     c-0.34,6.25,0.14,9.031-0.59,12.711c-0.16,0.639-0.28,1.15-0.36,1.49c-0.021,0.09-0.04,0.18-0.07,0.279     c0,0.02-0.01,0.051-0.01,0.07c-0.24,0.84-0.54,1.74-0.92,2.75c-0.32,0.84-0.43,1.449-0.37,1.869v0.01     c-1.31,1.771-2.42,5.061-3.5,10.781c-1.08,5.719-1.74,12.07-1.24,13.059c0.19,0.391,1.32,0.512,2.63,0.512     c2.03,0,4.49-0.291,4.49-0.291c0.66-0.039,1.391-0.109,2.16-0.189c0.65,4.67-3,13.869-3,13.869L103.382,240.846z"/>
			<path fill="#1333c3" d="M382.871,186.805c-25.43-9.939-42.689-14.049-57.33-47.299c-14.64-33.25-25.01-54.791-62.819-60.881     c-30.521-4.92-60.26,2.381-77,21.391l9.89-0.051l42.92-0.221l54.72-0.279c6.36-0.039,11.551,5.1,11.58,11.461l0.521,100.689     v0.299c0.57-0.299,1.22-0.539,1.89-0.729c1.891-1.721,5.79-3.641,9.07-4.23c0,0,0,0.01-0.01,0.029     c0.09-0.029,0.14-0.049,0.14-0.049l9.09,0.51c0,0,9.15,5.119,11.25,6.42c1.36,0.84,0.03,7.83-1.14,13.629     c11.46,0.531,12.32,2.74,12.32,2.74s-1.341,9.791-2.94,20.49h20.84v7.031h-4.84v9.229c6.62-3.789,14.03-7.33,22.46-10.41     C440.462,235.775,414.021,198.975,382.871,186.805z M328.501,193.086c-2.01,6.979-3.699,7.738-3.699,7.738     c-1.84,1.91-8.58,4.262-10.08,4.111c-1.49-0.15-2.641-5.141-3.03-5.541c-0.38-0.41-2.2-0.869-1.95-1.49     c0.24-0.629,2.13-4.49,1.26-4.99c-0.739-0.43,0.091-2.5,0.65-3.689c0,0-4.31-4.35-0.6-6.42c10.59-5.92,13.52,1.42,14.34,1.631     C326.212,184.645,330.831,184.955,328.501,193.086z"/>
			<path fill="#1333c3" d="M328.501,193.086c-2.01,6.979-3.699,7.738-3.699,7.738c-1.84,1.91-8.58,4.262-10.08,4.111     c-1.49-0.15-2.641-5.141-3.03-5.541c-0.38-0.41-2.2-0.869-1.95-1.49c0.24-0.629,2.13-4.49,1.26-4.99     c-0.739-0.43,0.091-2.5,0.65-3.689c0,0-4.31-4.35-0.6-6.42c10.59-5.92,13.52,1.42,14.34,1.631     C326.212,184.645,330.831,184.955,328.501,193.086z"/>
			<path fill="#1333c3" d="M129.291,203.186c-0.85-0.82-1.659-1.48-2.329-1.811c-2.4-1.199-6.721-1.99-8.11-2.23l-1.5-1.299     c-0.12-0.391-0.25-0.791-0.36-1.211c-0.109-0.41-0.21-0.82-0.3-1.23c0.47,0.08,0.85,0.111,1.12,0.121     c1.62,0.029,3.08-4.611,3.08-4.611s1.39-0.279,1.729-0.488c0.33-0.211-0.989-4.451-0.56-5.891c0.439-1.439,0.63-3.27,0.63-3.27     c0.09-0.861,0.03-1.68-0.17-2.451c2.33-0.479,4.54-1,6.64-1.539L129.291,203.186z"/>
			<path fill="#1333c3" d="M149.241,223.945l-1,3.289l-4.14,0.771c-0.14,0.799-0.45,1.83-1.07,2.76     c-1.1,1.648-11.45,2.889-14.21,3.189c0.26,3.529,0.5,6.131,0.5,6.131l-0.59,0.34c2.03,7.5,6.23,33.119,6.23,33.119     c-0.24,0.141-0.49,0.27-0.75,0.4c0.319,2.879,0.609,5.641,0.829,7.811c-3.68,0.229-7.279,0.35-10.79,0.299     c-3.88-0.061-7.659-0.32-11.34-0.83c-3.359-0.459-6.63-1.129-9.819-2.029c-0.051-0.609-0.101-1.211-0.15-1.791     c-1.26-0.129-1.979-0.229-1.979-0.229c-2.45-17.711,0.069-29.691,2.42-36.33l-0.65-0.201c0,0,3.65-9.199,3-13.869     c-0.77,0.08-1.5,0.15-2.16,0.189c0,0-2.46,0.291-4.49,0.291c-1.31,0-2.439-0.121-2.63-0.512c-0.5-0.988,0.16-7.34,1.24-13.059     c1.08-5.721,2.19-9.01,3.5-10.781v-0.01c-0.06-0.42,0.05-1.029,0.37-1.869c0.38-1.01,0.68-1.91,0.92-2.75     c0-0.02,0.01-0.051,0.01-0.07c0.03-0.1,0.05-0.189,0.07-0.279c0.08-0.34,0.2-0.852,0.36-1.49c0.729-3.68,0.25-6.461,0.59-12.711     c0.39-0.139,0.79-0.279,1.2-0.42c0.18-0.061,0.359-0.119,0.539-0.189c2.681-0.9,5.511-1.711,8.48-2.439     c1.98-0.49,4.02-0.932,6.13-1.33c0.76-0.141,1.51-0.291,2.24-0.451c0.14-0.02,0.28-0.049,0.42-0.08     c0.2,0.771,0.26,1.59,0.17,2.451c0,0-0.19,1.83-0.63,3.27c-0.43,1.439,0.89,5.68,0.56,5.891c-0.34,0.209-1.729,0.488-1.729,0.488     s-1.46,4.641-3.08,4.611c-0.271-0.01-0.65-0.041-1.12-0.121c0.09,0.41,0.19,0.82,0.3,1.23c0.11,0.42,0.24,0.82,0.36,1.211     l1.5,1.299c1.39,0.24,5.71,1.031,8.11,2.23c0.67,0.33,1.479,0.99,2.329,1.811v0.24l0.051,8.619v0.471     c0.01,1.58,0.33,3.09,0.909,4.459c0.08,0.17,0.16,0.34,0.23,0.5c1.88,3.871,5.86,6.531,10.44,6.51L149.241,223.945z"/>
			<path fill="#1333c3" d="M168.352,146.535v8.82c0,1.6-1.29,2.9-2.9,2.9h-3.239c2.829-3.881,4.68-8.041,6.06-12.371     C168.321,146.096,168.352,146.314,168.352,146.535z"/>
			<path fill="#1333c3" d="M168.352,169.545v8.82c0,1.609-1.29,2.91-2.9,2.91h-8.819c-1.601,0-2.9-1.301-2.9-2.91v-8.82     c0-1.6,1.3-2.9,2.9-2.9h8.819C167.062,166.645,168.352,167.945,168.352,169.545z"/>
			<path fill="#1333c3" d="M168.352,192.564v8.82c0,1.6-1.29,2.9-2.9,2.9h-8.819c-1.601,0-2.9-1.301-2.9-2.9v-8.82     c0-1.609,1.3-2.91,2.9-2.91h8.819C167.062,189.654,168.352,190.955,168.352,192.564z"/>
			<path fill="#1333c3" d="M271.342,223.314v18.631c0,1.65-1.341,2.99-2.99,2.99h-16.78l-1.689,4.01h14.34v1.6h-24.681l2.471-5.609     h-9.16c-1.65,0-2.99-1.34-2.99-2.99v-18.42L271.342,223.314z"/>
			<rect x="177.371" y="123.875" fill="#1333c3" width="103.07" height="3.59"/>
			<rect x="177.371" y="146.855" fill="#1333c3" width="103.07" height="3.59"/>
			<rect x="177.371" y="171.695" fill="#1333c3" width="103.07" height="3.6"/>
			<rect x="177.371" y="194.686" fill="#1333c3" width="103.07" height="3.59"/>
			<path fill="#1333c3" d="M365.861,250.725v7.031h-4.84v9.229c-1.34,0.76-2.64,1.531-3.91,2.311c-0.75,0.461-1.479,0.92-2.21,1.381     c-15.08,9.619-25.92,20.309-36.16,28.949c-2.99,2.52-5.92,4.869-8.899,6.971c-5.221,3.68-10.561,6.58-16.511,8.279     c-3.229,0.93-6.63,1.5-10.3,1.65c-12.85,0.529-28.859-4.121-51.42-16.861c-1.7-0.959-3.34-1.889-4.92-2.809     c-0.75-0.42-1.479-0.85-2.21-1.27c-1.14-0.65-2.26-1.301-3.35-1.932v-35.898h-4.511v-7.031h89.7c0.11-3.279,0.24-7,0.32-8.869     c0.18-4.121-0.101-10.781-0.351-16.721c-3.85,2.74-8.649,5.85-11.649,7.77c-1.63,1.041-3.78,0.682-4.98-0.84l-6.939-8.809     l11.17-0.061c6.26-0.031,11.34-5.061,11.46-11.281c0.57-0.299,1.22-0.539,1.89-0.729c1.891-1.721,5.79-3.641,9.07-4.23     c0,0,0,0.01-0.01,0.029c0.09-0.029,0.14-0.049,0.14-0.049l9.09,0.51c0,0,9.15,5.119,11.25,6.42c1.36,0.84,0.03,7.83-1.14,13.629     c11.46,0.531,12.32,2.74,12.32,2.74s-1.341,9.791-2.94,20.49H365.861z"/>
		</g>
		<g>
			<path opacity="0.7" fill="#1333c3" d="M168.352,146.535v8.82c0,1.6-1.29,2.9-2.9,2.9h-8.819c-1.601,0-2.9-1.301-2.9-2.9v-8.82     c0-1.6,1.3-2.9,2.9-2.9h8.819c1.38,0,2.53,0.961,2.82,2.25C168.321,146.096,168.352,146.314,168.352,146.535z"/>
			<path opacity="0.7" fill="#1333c3" d="M168.352,123.695v8.82c0,1.609-1.29,2.91-2.9,2.91h-8.819c-1.601,0-2.9-1.301-2.9-2.91     v-8.82c0-1.6,1.3-2.9,2.9-2.9h8.819C167.062,120.795,168.352,122.096,168.352,123.695z"/>
			<path opacity="0.7" fill="#1333c3" d="M168.352,169.545v8.82c0,1.609-1.29,2.91-2.9,2.91h-8.819c-1.601,0-2.9-1.301-2.9-2.91     v-8.82c0-1.6,1.3-2.9,2.9-2.9h8.819C167.062,166.645,168.352,167.945,168.352,169.545z"/>
			<path opacity="0.7" fill="#1333c3" d="M168.352,192.564v8.82c0,1.6-1.29,2.9-2.9,2.9h-8.819c-1.601,0-2.9-1.301-2.9-2.9v-8.82     c0-1.609,1.3-2.91,2.9-2.91h8.819C167.062,189.654,168.352,190.955,168.352,192.564z"/>
			<path opacity="0.6" fill="#1333c3" d="M304.831,110.926c-0.029-6.361-5.22-11.5-11.58-11.461l-54.72,0.279l-42.92,0.221     l-9.89,0.051l-45.431,0.229c-6.369,0.041-11.5,5.221-11.47,11.592l0.34,65.439l0.13,25.91v0.24l0.051,8.619v0.471     c0.01,1.58,0.33,3.09,0.909,4.459c0.08,0.17,0.16,0.34,0.23,0.5c1.88,3.871,5.86,6.531,10.44,6.51l8.319-0.039l80.62-0.42     l41.48-0.211l11.38-0.059l11.17-0.061c6.26-0.031,11.34-5.061,11.46-11.281v-0.299L304.831,110.926z M168.352,201.385     c0,1.6-1.29,2.9-2.9,2.9h-8.819c-1.601,0-2.9-1.301-2.9-2.9v-8.82c0-1.609,1.3-2.91,2.9-2.91h8.819c1.61,0,2.9,1.301,2.9,2.91     V201.385z M168.352,178.365c0,1.609-1.29,2.91-2.9,2.91h-8.819c-1.601,0-2.9-1.301-2.9-2.91v-8.82c0-1.6,1.3-2.9,2.9-2.9h8.819     c1.61,0,2.9,1.301,2.9,2.9V178.365z M168.352,155.355c0,1.6-1.29,2.9-2.9,2.9h-8.819c-1.601,0-2.9-1.301-2.9-2.9v-8.82     c0-1.6,1.3-2.9,2.9-2.9h8.819c1.38,0,2.53,0.961,2.82,2.25c0.05,0.211,0.08,0.43,0.08,0.65V155.355z M168.352,132.516     c0,1.609-1.29,2.91-2.9,2.91h-8.819c-1.601,0-2.9-1.301-2.9-2.91v-8.82c0-1.6,1.3-2.9,2.9-2.9h8.819c1.61,0,2.9,1.301,2.9,2.9     V132.516z M280.441,198.275h-103.07v-3.59h103.07V198.275z M280.441,175.295h-103.07v-3.6h103.07V175.295z M280.441,150.445     h-103.07v-3.59h103.07V150.445z M280.441,127.465h-103.07v-3.59h103.07V127.465z"/>
			<rect x="177.371" y="123.875" opacity="0.7" fill="#1333c3" width="103.07" height="3.59"/>
			<rect x="177.371" y="146.855" opacity="0.7" fill="#1333c3" width="103.07" height="3.59"/>
			<rect x="177.371" y="171.695" opacity="0.7" fill="#1333c3" width="103.07" height="3.6"/>
			<rect x="177.371" y="194.686" opacity="0.7" fill="#1333c3" width="103.07" height="3.59"/>
			<g>
				<g>
					<rect x="177.371" y="123.875" fill="#FFFFFF" width="103.07" height="3.59"/>
					<rect x="177.371" y="146.855" fill="#FFFFFF" width="103.07" height="3.59"/>
					<rect x="177.371" y="171.695" fill="#FFFFFF" width="103.07" height="3.6"/>
					<rect x="177.371" y="194.686" fill="#FFFFFF" width="103.07" height="3.59"/>
				</g>
				<path fill="#1333c3" d="M168.352,123.695v8.82c0,1.609-1.29,2.91-2.9,2.91h-8.819c-1.601,0-2.9-1.301-2.9-2.91v-8.82      c0-1.6,1.3-2.9,2.9-2.9h8.819C167.062,120.795,168.352,122.096,168.352,123.695z"/>
				<g>
					<path fill="#1333c3" d="M168.352,169.545v8.82c0,1.609-1.29,2.91-2.9,2.91h-8.819c-1.601,0-2.9-1.301-2.9-2.91v-8.82       c0-1.6,1.3-2.9,2.9-2.9h8.819C167.062,166.645,168.352,167.945,168.352,169.545z"/>
					<g>
						<g>
							<g>
								<g>
									<g>
										<path fill="#FFFFFF" d="M160.544,177.494l-4.059-3.527c-0.333-0.291-0.367-0.793-0.079-1.127            c0.288-0.332,0.792-0.367,1.126-0.078l2.869,2.494l4.084-4.566c0.291-0.33,0.795-0.357,1.125-0.064            c0.33,0.295,0.359,0.799,0.063,1.129L160.544,177.494z"/>
									</g>
								</g>
							</g>
						</g>
					</g>
				</g>
				<g>
					<path fill="#1333c3" d="M168.352,146.535v8.82c0,1.6-1.29,2.9-2.9,2.9h-8.819c-1.601,0-2.9-1.301-2.9-2.9v-8.82       c0-1.6,1.3-2.9,2.9-2.9h8.819c1.38,0,2.53,0.961,2.82,2.25C168.321,146.096,168.352,146.314,168.352,146.535z"/>
					<g>
						<g>
							<g>
								<g>
									<g>
										<path fill="#FFFFFF" d="M160.544,154.479l-4.059-3.525c-0.333-0.291-0.367-0.795-0.079-1.127            c0.288-0.334,0.792-0.369,1.126-0.08l2.869,2.494l4.084-4.566c0.291-0.328,0.795-0.355,1.125-0.062            c0.33,0.295,0.359,0.799,0.063,1.125L160.544,154.479z"/>
									</g>
								</g>
							</g>
						</g>
					</g>
					<path fill="#1333c3" d="M168.352,192.564v8.82c0,1.6-1.29,2.9-2.9,2.9h-8.819c-1.601,0-2.9-1.301-2.9-2.9v-8.82       c0-1.609,1.3-2.91,2.9-2.91h8.819C167.062,189.654,168.352,190.955,168.352,192.564z"/>
					<g>
						<g>
							<g>
								<g>
									<g>
										<path fill="#FFFFFF" d="M160.544,200.508l-4.059-3.525c-0.333-0.289-0.367-0.793-0.079-1.129            c0.288-0.332,0.792-0.367,1.126-0.078l2.869,2.494l4.084-4.566c0.291-0.328,0.795-0.355,1.125-0.061            c0.33,0.293,0.359,0.797,0.063,1.123L160.544,200.508z"/>
									</g>
								</g>
							</g>
						</g>
					</g>
				</g>
				<g>
					<path fill="#FFFFFF" d="M159.338,129.225c0-0.189,0.009-0.371,0.036-0.545c0.023-0.174,0.071-0.338,0.141-0.5       c0.07-0.162,0.173-0.312,0.303-0.453c0.133-0.141,0.307-0.268,0.52-0.383c0.108-0.059,0.251-0.135,0.428-0.23       c0.18-0.092,0.353-0.203,0.521-0.326s0.314-0.268,0.438-0.43c0.124-0.16,0.188-0.338,0.188-0.535       c0-0.271-0.102-0.484-0.298-0.637c-0.2-0.156-0.425-0.23-0.683-0.23c-0.162,0-0.312,0.031-0.438,0.094       c-0.127,0.061-0.244,0.137-0.345,0.221c-0.105,0.088-0.194,0.186-0.268,0.293c-0.072,0.105-0.14,0.201-0.196,0.285       l-1.275-0.893c0.216-0.504,0.556-0.895,1.022-1.176c0.465-0.279,0.992-0.418,1.576-0.418c0.314,0,0.628,0.043,0.939,0.133       c0.313,0.094,0.596,0.238,0.84,0.434c0.252,0.197,0.451,0.453,0.609,0.768c0.155,0.312,0.235,0.693,0.235,1.139       c0,0.469-0.099,0.865-0.292,1.182s-0.479,0.596-0.859,0.834c-0.172,0.117-0.35,0.221-0.526,0.311       c-0.175,0.092-0.34,0.186-0.489,0.285c-0.146,0.1-0.266,0.211-0.358,0.334c-0.089,0.123-0.137,0.271-0.137,0.445H159.338z        M159.374,132.256v-1.857h1.62v1.857H159.374z"/>
				</g>
			</g>
		</g>
		<g>
			<path fill="#EEA886" d="M364.072,218.516c0,0,2.523-0.438,2.475-1.463c-0.051-1.027,0.382-2.426,0.54-2.859     c0.213-0.578,0.234-2.627,0.931-2.336c0.695,0.293,0.116,3.385,0.117,4.061c0.001,0.678,2.186-1.217,2.85-1.223     c0.663-0.006,3.485,4.082,1.842,5.193c-1.645,1.113-4.117,1.133-4.368,1.389s-2.428,1.115-2.428,1.115L364.072,218.516z"/>
			<path fill="#EEA886" d="M370.54,214.857c0,0,5.256-3.045,5.771-2.932c0.518,0.111,0.661,0.426,0.182,0.732     c-0.48,0.307-4.994,3.102-4.994,3.102s6.812-2.48,7.251-2.488c0.259-0.004,0.573,0.592,0.329,0.781     c-0.242,0.189-6.854,3.061-6.854,3.061s6.365-2.303,6.736-2.191c0.326,0.098,0.486,0.719,0.027,0.924     c-0.461,0.205-6.249,2.699-6.249,2.699s4.739-1.363,5.005-1.074c0.163,0.178,0.456,0.678-0.778,0.99     c-1.233,0.311-4.065,1.371-4.065,1.371L370.54,214.857z"/>
		</g>
		<g>
			<g>
				<polygon fill="#858585" points="332.459,283.844 342.775,326.863 345.048,326.863 336.298,283.75     "/>
			</g>
		</g>
		<g>
			<g>
				<polygon fill="#858585" points="321.201,283.844 331.521,326.863 333.793,326.863 325.043,283.75     "/>
			</g>
		</g>
		<g>
			<g>
				<polygon fill="#858585" points="308.624,283.844 298.307,326.863 296.032,326.863 304.782,283.75     "/>
			</g>
		</g>
		<g>
			<g>
				<path fill="#E2D2CA" d="M347.962,230.234c0,0-1.341,9.791-2.94,20.49c-0.14,0.91-0.28,1.82-0.42,2.74v0.01      c-0.19,1.25-0.38,2.5-0.57,3.74c-0.03,0.18-0.06,0.359-0.09,0.541c-0.4,2.58-0.8,5.1-1.2,7.439c-0.45,2.699-0.88,5.15-1.27,7.17      c-0.2,1-0.38,1.891-0.55,2.65c-0.41,1.799-0.851,3.24-1.311,4.41c-1.85,4.789-3.86,4.84-3.86,4.84h-44.46      c-0.31-4.26,0.881-11.42,0.881-11.42l0.5-0.65l11.13-14.439l0.42-0.541l1.979-2.57v-0.01l1.63-2.109l0.86-1.111l0.53-0.689      l0.149-0.189l0.811-1.061l16.99-22.039c3.319-0.07,6.119-0.031,8.47,0.059C347.102,228.025,347.962,230.234,347.962,230.234z"/>
			</g>
		</g>
		<g>
			<g>
				<polygon fill="#24263D" points="307.013,257.107 312.808,256.096 308.944,246.367     "/>
			</g>
		</g>
		<g>
			<g>
				<g>
					<g>
						<path fill="#0E538C" d="M283.65,322.596c0,0-3.809,2.264-5.532,3.107c-1.728,0.842-8.438,1.1-9.1,1.732        c-0.661,0.631-0.414,2.637,0.697,2.838c1.114,0.203,9.274,0.92,11.995,0.275c2.72-0.643,7.813,0.416,8.94,0.031        c1.126-0.387,0.383-6.463-0.056-7.826S283.65,322.596,283.65,322.596z"/>
					</g>
				</g>
			</g>
			<g>
				<g>
					<g>
						<path fill="#1C1E30" d="M283.71,320.023l-0.06,2.572c0,0,5.103,0.941,6.945,0.158l-0.128-2.824L283.71,320.023z"/>
					</g>
				</g>
			</g>
			<g>
				<g>
					<path fill="#282B45" d="M331.051,262.16c0,0-29.126,6.184-33.672,8.115c-4.545,1.93-7.272,2.727-7.612,3.691       c-0.343,0.967-7.443,47.158-7.443,47.158h9.659c0,0,7.499-34.885,8.408-37.045c0.909-2.158,36.931-2.273,39.543-4.887       c2.614-2.613,4.887-9.771,2.046-16.191S331.051,262.16,331.051,262.16z"/>
				</g>
			</g>
		</g>
		<g>
			<g>
				<g>
					<g>
						<path fill="#0E538C" d="M319.165,324.42c0,0-3.419,2.82-4.994,3.918c-1.576,1.096-8.17,2.377-8.727,3.104        c-0.557,0.725-0.006,2.67,1.126,2.699s9.303-0.512,11.894-1.564c2.591-1.049,7.785-0.783,8.839-1.338        c1.056-0.553-0.607-6.443-1.251-7.723C325.41,322.234,319.165,324.42,319.165,324.42z"/>
					</g>
				</g>
			</g>
			<g>
				<g>
					<g>
						<path fill="#0E538C" d="M318.83,321.871l0.335,2.549c0,0,5.188,0.148,6.887-0.904l-0.559-2.771L318.83,321.871z"/>
					</g>
				</g>
			</g>
			<g>
				<g>
					<path fill="#282B45" d="M332.873,257.855c0,0-31.569,14.395-33.615,19.059c-2.082,4.75,18.427,46.246,18.427,46.246       l9.432-1.459c0,0-15.422-39.467-14.577-41.438s50.86-7.93,39.319-21.205C340.318,245.779,332.873,257.855,332.873,257.855z"/>
				</g>
			</g>
		</g>
		<g>
			<g>
				<path fill="#0B4870" d="M332.735,213.375c1.516-0.787,6.57,0.938,8.062,3.262c3.471,5.404,10.028,12.08,10.028,12.08      l14.621-12.293l2.931,7.328l-17.356,14.629c-1.479,1.246-3.661,1.17-5.049-0.178c-4.56-4.426-13.943-13.734-14.668-16.062      C330.345,219.061,329.839,214.881,332.735,213.375z"/>
			</g>
		</g>
		<g>
			<g>
				<path fill="#FFFFFF" d="M335.642,227.494c-0.641,3.201-1.24,6.041-1.3,7.281c-0.101,1.939-2.011,9.59-3.67,15.949      c-0.58,2.211-1.131,4.27-1.561,5.871l-0.17,0.619l-0.14,0.541h-0.011l-0.59,2.189l-9.95-2.189l-2.449-0.541l-4.16-0.92      l-2.021-0.439c0.12-0.43,0.08-1.541-0.04-3.07c-0.05-0.621-0.119-1.32-0.189-2.061c-0.01-0.061-0.021-0.129-0.021-0.189      c-0.1-0.939-0.22-1.949-0.35-3v-0.01c-0.04-0.311-0.07-0.631-0.12-0.961c-0.479-3.9-1.06-8.139-1.38-10.879      c-0.28-2.43-0.58-6.65-0.75-10.9c-0.23-6.01-0.21-12.061,0.49-13.131c0.13-0.199,0.34-0.41,0.609-0.629      c2.03-1.631,7.49-3.689,8.431-4.041c0.09-0.029,0.14-0.049,0.14-0.049l9.09,0.51c0,0,9.15,5.119,11.25,6.42      C338.142,214.705,336.812,221.695,335.642,227.494z"/>
			</g>
		</g>
		<g>
			<g>
				<polygon fill="#1F2136" points="328.204,259.945 329.114,256.592 309.584,252.789 309.626,255.854     "/>
			</g>
		</g>
		<g>
			<g>
				<polygon fill="#4F558A" points="318.49,254.35 313.858,253.383 313.858,257.047 318.49,258.127     "/>
			</g>
		</g>
		<g>
			<g>
				<path fill="#0B4870" d="M320.566,244.809c0.05,0.959,0.112,1.932,0.161,2.914l0.014,0.012      c0.659,10.783,1.643,22.064,1.643,22.064c1.355,1.133,18.565-2.865,18.565-2.865s-2.118-2.875-4.16-10.844      c-2.054-7.957-0.448-15.602,1.681-28.549c2.116-12.949,0.361-12.877,0.361-12.877l-13.297-7.221      c-0.871,3.312-4.396,15.328-5.23,22.213C320.007,232.17,320.192,238.186,320.566,244.809z"/>
			</g>
		</g>
		<g>
			<g>
				<path fill="#0B4870" d="M316.312,206.955c0,0,0,0.01-0.01,0.029c-0.12,0.301-1.141,2.99-2.32,6.861      c-0.57,1.869-1.17,4.01-1.73,6.289c0,0,0,0.01-0.01,0.01c-0.55,2.24-1.06,4.631-1.439,7.02      c-0.891,5.48-1.28,13.311-1.721,19.551c-0.02,0.279-0.04,0.541-0.06,0.811v0.01c-0.08,1.141-0.17,2.209-0.26,3.189      c-0.021,0.24-0.04,0.471-0.07,0.689c-0.31,3.16-0.7,5.291-1.3,5.441c-0.13,0.029-0.25,0.059-0.351,0.09      c-1.39,0.33-0.909,0.061-0.909,0.061s0.029-0.941,0.069-2.361v-0.01c0.04-1.09,0.08-2.449,0.12-3.91      c0.11-3.279,0.24-7,0.32-8.869c0.18-4.121-0.101-10.781-0.351-16.721c-0.27-6.189-1.31-12.541-0.939-13.52      c0.159-0.422-0.37,0.059,0.159-0.422C307.401,209.475,313.031,207.545,316.312,206.955z"/>
			</g>
		</g>
		<g>
			<g>
				<path fill="#EEA987" d="M316.632,205.389c0,0.611-0.051,1.172-0.187,1.545c0,0,1.021,3.984,9.089,0.51c0,0-1.595-5.939,0-10.92      l-9.089,5.641c0,0,0.112,0.896,0.161,1.943C316.632,204.529,316.644,204.979,316.632,205.389z"/>
			</g>
		</g>
		<g>
			<g>
				<path fill="#D3D3D3" d="M325.205,205.865c0,0-3.171,1.533-6.371,1.83l1.56,3.316l5.141-3.564L325.205,205.865z"/>
			</g>
		</g>
		<g>
			<g>
				<path fill="#D3D3D3" d="M318.834,207.695c0,0-2.232-0.738-2.216-1.83l-0.303,1.094l0.91,3.5L318.834,207.695z"/>
			</g>
		</g>
		<g>
			<g>
				<path fill="#1333c3" d="M318.834,207.695l-1.167,2.004c0,0,0.541,0.617,2.272,0.35L318.834,207.695z"/>
			</g>
		</g>
		<g>
			<g>
				<path fill="#1333c3" d="M317.918,209.873c0,0-4.769,14.031-4.807,23.994c-0.038,9.961,0.747,15.908,0.747,15.908l1.051,1.961      l1.534-1.791c0,0-1.083-28.926,3.16-39.855C319.604,210.09,318.095,209.371,317.918,209.873z"/>
			</g>
		</g>
		<path fill="#A77860" d="M316.606,204.107c0.025,0.422,0.037,0.871,0.025,1.281c6.412,0.102,6.512-3.561,6.512-3.561    C322.146,204.48,316.606,204.107,316.606,204.107z"/>
		<g>
			<g>
				<g>
					<g>
						<g>
							<path fill="#EEA886" d="M279.514,209.045c0,0-1.583-3.146-1.838-3.617c-0.256-0.473-1.505-1.125-2.999-1.74         c-1.492-0.611-3.752-0.695-3.973-0.514c-0.221,0.18-0.52,0.246-0.744,0.988c-0.226,0.74-0.051,1.506-0.051,1.506         s-0.664,0.766-0.385,1.691c0,0-0.596,0.752-0.121,1.746c0,0-0.564,0.752-0.165,1.441c0,0,1.249,0.658,1.652,1.051         c0.399,0.393,3.087,1.561,5.817,2.242C276.708,213.84,279.479,213.514,279.514,209.045z"/>
						</g>
					</g>
				</g>
			</g>
			<g>
				<g>
					<g>
						<g>
							<path fill="#EEA886" d="M279.514,209.045c0,0,3.02,3.012,2.952,3.732c-0.114,1.189-1.581,4.66-1.656,4.59         c-0.076-0.07-4.728-3.691-4.728-3.691L279.514,209.045z"/>
						</g>
					</g>
				</g>
			</g>
			<g>
				<g>
					<path fill="#0B4870" d="M310.944,220.053c0,0,0,0.01-0.01,0.01c-0.5,0.879-2.689,2.639-5.47,4.639       c-0.16,0.121-0.32,0.23-0.48,0.352c-3.85,2.738-8.649,5.85-11.649,7.77c-1.63,1.039-3.78,0.68-4.98-0.84l-6.939-8.811       l-7.11-9.02l0.39-0.59l3.301-5.01l0.66-0.99l11.84,14.99c0,0,7.77-5.221,12.26-9.811c0.34-0.35,0.78-0.65,1.29-0.91       c0.57-0.301,1.22-0.541,1.89-0.73c0.21-0.061,0.42-0.109,0.63-0.16c1.971-0.43,3.99-0.379,4.74,0.23       c0.84,0.68,1.26,1.58,1.37,2.59C312.925,215.762,311.984,218.162,310.944,220.053z"/>
				</g>
			</g>
			<g>
				
					<rect x="270.961" y="196.984" transform="matrix(-0.8238 0.5669 -0.5669 -0.8238 610.0791 216.076)" fill="#EB4747" width="0.992" height="11.745"/>
				<polygon fill="#EEA886" points="268.55,197.729 267.164,196.582 267.729,198.289     "/>
			</g>
			<g>
				<g>
					<g>
						<g>
							<path fill="#D69779" d="M271.103,203.318c0,0,3.75,1.652,3.588,2.357c-0.164,0.703-0.606,0.852-0.606,0.852l1.271,1.459         c0,0,0.35,1.492-1.212,1.475c0,0,0.46,1.357-1.049,1.143c0,0-0.055,1.043-0.769,1.082c-0.714,0.037-3.087-1.139-3.087-1.139         s-0.401-0.498,0.165-1.441c0,0-0.503-0.924,0.121-1.746c0,0-0.298-0.809,0.385-1.691c0,0-0.54-1.859,0.795-2.494         C270.704,203.174,270.943,203.248,271.103,203.318z"/>
						</g>
					</g>
				</g>
			</g>
			<g>
				<g>
					<g>
						<g>
							<path fill="#EEA886" d="M277.564,205.359c0,0-2.751,0.297-4.19,1.191c-0.323,0.201-0.604,0.463-0.556,0.877         c0.047,0.414,0.644,0.863,1.842,0.803c1.196-0.059,2.773,0.475,2.773,0.475S278.647,208.24,277.564,205.359z"/>
						</g>
					</g>
				</g>
			</g>
		</g>
		<path fill="#12131F" d="M280.835,284.684c0,0,2.043-12.742,2.15-13.258c0.109-0.516,2.187-2.373,12.116-5.627    c0,0-11.038,2.146-13.932,4.031C278.938,271.283,280.835,284.684,280.835,284.684z"/>
		<g>
			<rect x="224.477" y="261.082" fill="#0E538C" width="2.211" height="72.584"/>
			<rect x="354.901" y="261.082" fill="#0E538C" width="2.212" height="72.584"/>
			<rect x="221.132" y="257.215" fill="#CCE9FF" width="139.89" height="65.76"/>
			<rect x="216.621" y="250.545" fill="#0E538C" width="149.24" height="7.031"/>
			<rect x="223.638" y="332.238" fill="#0E538C" width="3.89" height="1.428"/>
			<rect x="354.141" y="332.238" fill="#0E538C" width="3.734" height="1.428"/>
		</g>
		<g>
			<g>
				<path fill="#F7F7F7" d="M271.342,218.025v23.92c0,1.65-1.341,2.99-2.99,2.99h-35.5c-1.65,0-2.99-1.34-2.99-2.99v-23.92      c0-1.65,1.34-2.99,2.99-2.99h35.5C270.001,215.035,271.342,216.375,271.342,218.025z"/>
				<polygon fill="#F7F7F7" points="257.071,248.945 257.071,250.545 239.541,250.545 242.012,244.936 246.441,234.875       246.611,234.484 255.991,234.484 251.602,244.875 251.571,244.936 249.882,248.945     "/>
				<polygon fill="#F2F2F2" points="255.451,234.484 255.271,234.926 251.031,244.936 248.661,250.545 239.571,250.545       242.041,244.936 246.462,234.875 246.632,234.484     "/>
				<polygon fill="#D3D3D3" points="264.222,248.945 264.222,250.545 249.262,250.545 249.882,248.945     "/>
				<polygon fill="#D3D3D3" points="251.581,244.877 255.992,234.436 255.992,244.877     "/>
			</g>
			<g>
				<path fill="#FFFFFF" d="M247.487,239.338c0.489-1.262,1.662-2.027,2.812-1.932c-0.093-0.055-0.19-0.102-0.292-0.141      c-1.329-0.514-2.876,0.285-3.456,1.787c-0.583,1.502,0.023,3.137,1.352,3.65c0.211,0.082,0.428,0.127,0.645,0.145      C247.428,242.221,246.95,240.725,247.487,239.338z"/>
				<path fill="#D3D3D3" d="M249.271,242.791c0.891-0.199,1.704-0.879,2.09-1.875c0.426-1.102,0.211-2.27-0.456-3.02      c-0.099-0.111-0.206-0.215-0.324-0.305c-0.089-0.068-0.183-0.131-0.28-0.186c-1.15-0.096-2.323,0.67-2.812,1.932      c-0.537,1.387-0.06,2.883,1.061,3.51c0.083,0.006,0.163,0.01,0.244,0.008C248.953,242.852,249.112,242.826,249.271,242.791z"/>
			</g>
		</g>
		<g>
			<path fill="#EEA987" d="M397.03,176.982c0,0-1.886,0.252-1.869-0.547c0.014-0.797,0.142-1.838,0.142-1.838L397.03,176.982z"/>
			<path fill="#EEA987" d="M407.63,168.33l-6.191,4.789c0.789-0.148,2.11-0.34,2.142,0.074c0.041,0.588-2.354,1.299-3.113,1.834     c-0.696,0.492-1.427,1.367-1.621,1.408l-1.353,1.16l-2.19-2.998c0,0,3.614-4.09,4.485-4.961c1.416-1.418,7.144-2.252,7.456-2.045     C407.811,167.963,407.63,168.33,407.63,168.33z"/>
		</g>
		<g>
			<path fill="#1333c3" d="M399.988,177.797l-4.993-4.23l-17.123,17.305c-2.682,1.842,5.229,8.193,7.461,9.58     c5.74,3.559,12.511,11.793,19.535,6.771c7.613-5.445-3.471-9.32-7.166-9.225c-3.205,0.082-10.18-6.217-10.18-6.217     L399.988,177.797z"/>
		</g>
		<g>
			<path fill="#0B4870" d="M390.951,333.07c0,0-2.846,2.986-5.733,3.613c-2.887,0.625-7.871,2.756-7.894,4.471     s11.275,1.51,14.58-0.217c4.933-2.58,5.435-1.803,5.981-3.092c0.548-1.287-0.656-4.738-0.621-5.146     C397.308,332.193,390.951,333.07,390.951,333.07z"/>
		</g>
		<g>
			<path fill="#2F6B8C" d="M391.271,331.641c0,0-0.377,1.398-0.32,1.43c0.056,0.029,6.509,0.752,6.313-0.371     c-0.158-0.912-0.384-1.902-0.384-1.902L391.271,331.641z"/>
		</g>
		<g>
			<path fill="#0B4870" d="M423.089,333.848c0,0-2.093,2.91-4.893,3.582c-2.76,0.662-6.845,3.246-6.98,4.912     c-0.135,1.664,8.804,2.521,13.471-0.404c3.067-1.924,4.211-1.812,4.828-3.035c0.618-1.223-0.323-4.646-0.261-5.043     C429.329,333.371,423.089,333.848,423.089,333.848z"/>
		</g>
		<g>
			<path fill="#2F6B8C" d="M423.173,332.41c0,0-0.137,1.406-0.084,1.438c0.052,0.033,6.201,1.119,6.165,0.012     c-0.03-0.881-0.392-1.977-0.392-1.977L423.173,332.41z"/>
		</g>
		<g>
			<path fill="#0E538C" d="M397.779,247.588c0,0-2.989,21.707-4.209,29.045c-1.426,8.578-1.91,15.666-2.31,20.109     c-0.5,5.584-1.162,34.164-1.513,35.799c-0.352,1.631,8.702,0.783,8.702,0.783s4.744-37.26,6.234-43.209     c1.389-5.537,5.431-29.461,6.696-27.949c1.267,1.512,5.145,28.613,6.082,32.98c0.94,4.367,3.452,38.754,3.452,38.754     s8.542,1.369,10.262,0c0,0-1.349-30.662-1.945-38.85c-0.229-3.123,1.974-37.365-3.304-51.174     C423.138,236.58,397.779,247.588,397.779,247.588z"/>
		</g>
		<path fill="#1333c3" d="M407.547,195.531c0,0-7.906,1.635-8.845,2.467c-1.018,0.885-2.816,9.543-2.922,11.957    c-0.109,2.414,0.953,12.49,1.971,16.242s-1.335,19.801-1.979,25c0,0,17.597,3.303,33.25,1.266c0,0-2.134-15.791-1.507-20.932    c0.804-6.588,2.733-21.768,2.733-21.768s0.013-8.543-1.198-9.908c-2.596-2.932-12.579-4.324-12.579-4.324H407.547z"/>
		<path fill="#1333c3" d="M418.42,211.375c0.371,7.82,2.86,9.721,5.311,9.113c0.769-0.189,1.524-0.627,2.188-1.205    c1.042-0.906,1.859-2.16,2.152-3.352c1.073-4.355,1.082-16.367-4.414-17.912C423.657,198.02,417.696,196.092,418.42,211.375z"/>
		<path fill="#D3D3D3" d="M394.772,214.928c0,0,4.412-0.732,4.68,5.666c0.27,6.398,3.041,18.283,7.552,23.02l-17.752,0.674    c-4.513-4.736-6.729-16.08-7.065-22.475c-0.312-5.881-4.684-5.666-4.684-5.666L394.772,214.928z"/>
		<path fill="#1333c3" d="M405.128,200.273c0.102,0.068,0.208,0.133,0.327,0.189c0.401,0.205,0.91,0.352,1.551,0.422    c0.233,0.027,0.468,0.035,0.704,0.029c0.144-0.002,0.288-0.012,0.435-0.025c4.185-0.408,8.338-5.197,8.338-5.197    c-8.403-1.273-12.006,0.293-12.006,0.293S403.132,198.928,405.128,200.273z"/>
		<path fill="#EEA886" d="M405.303,197.244c0,0,1.957,1.293,9.379-1.977c0,0-0.74-4.408,0.403-9.244    c1.104-4.654-9.115,5.74-9.115,5.74c0.119,0.086,0.141,0.561,0.072,1.223c-0.018,0.18-0.043,0.371-0.074,0.57    c-0.053,0.344-0.125,0.711-0.215,1.088c-0.023,0.102-0.048,0.203-0.077,0.305C405.259,196.539,405.303,195.857,405.303,197.244z"/>
		<path fill="#0B4870" d="M414.68,193.861c0,0-3.88,2.34-7.72,2.867l2.043,3.26l6.469-4.457L414.68,193.861z"/>
		<path fill="#0B4870" d="M405.676,194.949c0,0,0.409,1.342,1.284,1.779l-1.918,2.674l0.07-3.545L405.676,194.949z"/>
		<path fill="#A77860" d="M405.71,193.662c4.4,0.232,7.215-4.33,7.301-4.465c-2.764,3.018-7.043,3.197-7.043,3.197    C405.915,192.738,405.799,193.285,405.71,193.662z"/>
		<path fill="#F7F7F7" d="M394.772,214.928c0,0-5.283,0.49-4.166,7.863l-15.683,0.848c0,0-2.167-5.021,2.579-7.492L394.772,214.928z    "/>
		<path fill="#EEA886" d="M408.365,228.709c0,0-0.679,0.32-1.27,0.16c-1.02-0.277-1.89-1.695-3.223-0.967    c-1.331,0.729-0.212,5.605,0.464,6.32c0.677,0.715,2.751,0.297,5.347-1.564C412.277,230.799,408.365,228.709,408.365,228.709z"/>
		<path fill="#EEA886" d="M404.357,227.723c0,0-2.252,0.168-4.735,0.662c-2.178,0.434-4.822,1.275-4.72,1.826    c0.155,0.834,2.245-0.105,4.433-0.389c2.017-0.262,1.662,0.131,1.662,0.131s0.094-0.117-2.046,0.6    c-2.304,0.771-4.742,1.693-4.668,2.146c0.095,0.559,0.153,0.621,1.034,0.479c-0.488,0.191-0.506,0.354-0.445,0.57    c0.312,1.104,3.869,0.506,5.281,0.266c-1.084,0.191-1.859,0.447-1.23,1.002c0.718,0.633,5.711-0.443,7.537-0.656    C408.449,234.129,404.357,227.723,404.357,227.723z"/>
		<path fill="#1333c3" d="M421.902,198.174c-1.614,0.531-2.476,2.812-1.495,7.551c1.087,5.24,2.303,7.787,3.005,9.021    c0.701,1.234,4.485,7.553,3.794,8.555c-0.692,1-9.839,3.379-10.462,3.557c-1.239,0.352-9.537,2.008-9.537,2.008l2.03,7.107    c0,0,25.266-4.312,26.497-5.541c1.23-1.23,1.871-2.896,0.511-7.193c-1.383-4.365-3.866-14.588-4.309-15.387    C431.497,207.053,429.182,195.781,421.902,198.174z"/>
		<path opacity="0.3" fill="#A77860" d="M420.632,206.758c0,0,0.825,10.586,4.49,18.105c1.114-0.25,2.21-0.826,3.172-1.588    c0,0-4.236-6.957-4.615-7.748S421.06,208.6,420.632,206.758z"/>
		<path opacity="0.3" fill="#A77860" d="M408.489,234.475c0,0,10.171,1.826,18.929,0.738c-0.131-0.846-0.013-1.773,0.259-2.857    c0,0-8.212,1.611-9.133,1.721C417.622,234.186,410.572,234.543,408.489,234.475z"/>
		<g>
			<g>
				<path fill="#E8734D" d="M114.611,172.395l-0.11,1l-1.189,11.23c-2.8-2.051-5.1-0.27-6.84,2.619c-0.05,0.08-0.101,0.16-0.15,0.25      c-1.53-2.77-3.359-7.779,0.05-12.139c1.681-2.15,4.16-3.08,6.69-3.08c0.15,0,0.31,0,0.46,0.01c0.07,0,0.13,0.01,0.2,0.01      c0.109,0.01,0.229,0.02,0.34,0.029c0.09,0.012,0.18,0.021,0.27,0.031c0.051,0.01,0.101,0.01,0.15,0.02      C114.521,172.385,114.571,172.385,114.611,172.395z"/>
			</g>
			<g>
				<path fill="#A77860" d="M122.621,190.426c-0.34,0.209-1.729,0.488-1.729,0.488s-1.46,4.641-3.08,4.611      c-0.271-0.01-0.65-0.041-1.12-0.121c-1.11-0.189-2.71-0.639-4.36-1.539l0.42-3.93l0.431-4.08c0-0.01,0.01-0.01,0.01-0.01      l0.08-0.84l0.04-0.381c-2.8-2.051-5.1-0.27-6.84,2.619c-0.561-1.309-1-2.719-1.221-4.129c-0.76-4.701,0.87-9.32,8.25-9.74      c0.29-0.02,0.631-0.01,1,0.02c2.4,0.17,6.061,1.4,7.601,5.5c0.27,0.701,0.47,1.49,0.59,2.371c0,0-0.19,1.83-0.63,3.27      C121.632,185.975,122.951,190.215,122.621,190.426z"/>
			</g>
			<g>
				<path fill="#0E538C" d="M122.691,181.266c0,0-4.14,2.859-8.26,3.469c-0.271,0.041-0.521,0.09-0.771,0.16h-0.01      c-0.13,0.031-0.26,0.07-0.38,0.111l0.04-0.381c-2.8-2.051-5.1-0.27-6.84,2.619c-0.05,0.08-0.101,0.16-0.15,0.25      c-0.3-0.549-0.62-1.189-0.899-1.898c-0.061-0.15-0.12-0.301-0.181-0.461c-0.21-0.57-0.39-1.189-0.529-1.83      c0-0.01,0-0.02-0.011-0.029c-0.04-0.18-0.069-0.361-0.1-0.551c-0.04-0.189-0.07-0.389-0.09-0.6      c-0.021-0.189-0.04-0.391-0.05-0.58c-0.011-0.199-0.021-0.4-0.021-0.6c0-1.84,0.51-3.77,1.93-5.59      c1.681-2.15,4.16-3.08,6.69-3.08c0.15,0,0.31,0,0.46,0.01c0.07,0,0.13,0.01,0.2,0.01c0.109,0.01,0.229,0.02,0.34,0.029      c0.09,0.012,0.18,0.021,0.27,0.031c0.051,0.01,0.101,0.01,0.15,0.02c0.04,0.01,0.09,0.01,0.13,0.02      c3.65,0.551,7.07,2.971,7.91,6.42C122.722,179.586,122.781,180.404,122.691,181.266z"/>
			</g>
			<g>
				<path fill="#E8734D" d="M102.922,196.436c-0.091,0.469-0.21,0.969-0.36,1.49C102.642,197.586,102.762,197.074,102.922,196.436z"/>
			</g>
		</g>
		<g>
			<g>
				<path fill="#1333c3" d="M145.611,334.256c0,0,3.819,5.363,3.296,6.215c-0.522,0.85-4.54,0.971-6.983,0      c-2.444-0.971-2.501-7.26-3.607-9.959c-0.463-1.131,0.525-4.469,1.92-4.713c1.394-0.242,2.907,0.471,2.907,0.471      S141.698,330.074,145.611,334.256z"/>
			</g>
			<g>
				<g>
					<path fill="#A77860" d="M143.171,326.227c0,0,0.802,2.283,1.096,4.465c0.243,1.809,2.72,5.648,2.604,6.137       c-0.117,0.486-3.259,0.926-4.541-0.328c-1.278-1.254-2.104-4.895-2.385-7.072c-0.264-2.029-0.594-3.031-0.594-3.031       S141.947,324.891,143.171,326.227z"/>
				</g>
			</g>
			<g>
				<path fill="#1333c3" d="M112.378,334.346c0,0,3.681,5.273,3.156,6.125c-0.524,0.85-4.538,0.971-6.983,0      c-2.443-0.971-2.504-7.26-3.608-9.959c-0.464-1.131,0.528-4.469,1.921-4.713c1.393-0.242,3.025,0.521,3.025,0.521      S108.464,330.162,112.378,334.346z"/>
			</g>
			<g>
				<g>
					<path fill="#A77860" d="M109.889,326.32c0,0,0.291,2.49,0.756,4.252c0.467,1.76,2.969,5.768,2.853,6.256       c-0.116,0.486-3.261,0.926-4.539-0.328c-1.281-1.254-2.271-4.879-2.386-7.072c-0.116-2.197,0.291-3.629,0.291-3.629       S108.667,324.986,109.889,326.32z"/>
				</g>
			</g>
			<g>
				<g>
					<path fill="#A77860" d="M143.401,327.346c0,0-0.189,0.16-0.51,0.318c-0.62,0.32-1.75,0.65-2.92-0.199       c-0.101-0.07-0.29-0.379-0.57-0.879c0,0,0,0,0-0.012v-0.01c-0.03-0.039-0.05-0.08-0.08-0.129       c-2.41-4.43-10.07-21.811-10.07-27.01c0-5.932-3.06-13.17-5-17.371c-0.729-1.57-1.31-2.709-1.51-3.209       c-0.21-0.51-0.41-1.01-0.6-1.5c-6.24-15.73-4.98-20.631-5.86-21.701c-0.899-1.1-0.979,0.68-1.51,3.121       c-0.35,1.648-0.99,11.91-1.58,19.139c-0.09,1.211-0.19,2.34-0.28,3.32c-0.17,1.801-0.33,3.131-0.47,3.68       c-0.68,2.682-0.15,11.701-0.52,16.26c-0.381,4.551-2.03,25.16-2.03,25.16s-1.28,2.09-3.08,0.051       c-0.01-0.02-0.03-0.061-0.05-0.141c-0.03-0.09-0.05-0.219-0.09-0.389c-0.66-3.471-2.96-22.861-3.03-27.84       c-0.08-5.42-0.16-12.891-0.3-15.23c-0.08-1.25-0.16-2.439-0.25-3.58c-0.051-0.609-0.101-1.211-0.15-1.791       c-1.52-17.719-3.96-21.648,0.97-36.18c0.021-0.061,0.04-0.129,0.07-0.189c0.88-2.58,1.8-4.721,2.74-6.49       c0.02-0.039,0.04-0.08,0.06-0.119c0.01-0.012,0-0.012,0-0.012c1.97-3.67,4.03-5.67,6.05-6.52c0.61-0.25,1.221-0.4,1.82-0.469       c0.37-0.031,0.74-0.041,1.11-0.012c0.04,0,0.09,0,0.13,0.012c0.8,0.068,1.58,0.289,2.33,0.619c0,0,0.01,0,0.01,0.01       c0.31,0.121,0.61,0.281,0.91,0.439l0.02,0.012c1.12,0.629,2.19,1.479,3.16,2.42c0.11,0.1,0.2,0.189,0.3,0.299l0.011,0.01       c0.43,0.42,0.83,0.861,1.22,1.301c0.37,0.43,0.729,0.869,1.06,1.301c0.301,0.379,0.561,0.729,0.83,1.09v0.01       c1.12,1.57,1.92,2.949,2.311,3.619c0.029,0.051,0.06,0.1,0.08,0.15c0.06,0.131,0.109,0.209,0.13,0.26       c0.01,0.01,0.02,0.02,0.02,0.029c0,0.012,0.01,0.021,0.01,0.031c0.021,0.119,0.131,0.66,0.301,1.48       c0.84,4.059,3.109,15.148,3.72,18.398c0.41,2.17,1.21,8.852,1.9,15.041c0.319,2.879,0.609,5.641,0.829,7.811       c0.181,1.789,0.311,3.17,0.36,3.85c0.22,3.299,3.41,15.719,3.26,16.9c-0.13,1.029,3.54,19.02,4.511,23.719       c0,0.01,0,0.02,0.01,0.031c0.01,0.029,0.01,0.049,0.02,0.068C143.331,326.975,143.401,327.346,143.401,327.346z"/>
				</g>
			</g>
			<g>
				<path fill="#0E538C" d="M134.962,273.545c-0.24,0.141-0.49,0.27-0.75,0.4c-3.49,1.82-7.771,2.85-12.07,3.4      c-3.061,0.398-6.141,0.549-8.95,0.559c-4.35,0.021-8.09-0.279-10.25-0.5c-1.26-0.129-1.979-0.229-1.979-0.229      c-2.45-17.711,0.069-29.691,2.42-36.33c1.489-4.23,2.899-6.301,2.899-6.301s0.16,0,0.44,0h0.06c1.181,0,4.28,0.041,7.78,0.301      c3.17,0.24,6.67,0.67,9.36,1.439c0.689,0.199,1.329,0.42,1.89,0.66c1.03,0.449,1.81,0.98,2.24,1.609      c0.029,0.051,0.06,0.1,0.08,0.15c0.06,0.09,0.1,0.17,0.13,0.26c0.01,0.01,0.02,0.02,0.02,0.029c0,0.012,0.01,0.021,0.01,0.031      c0.131,0.34,0.271,0.82,0.44,1.4C130.762,247.926,134.962,273.545,134.962,273.545z"/>
			</g>
			<g>
				<polygon fill="#1333c3" points="138.213,330.039 138.213,335.654 138.913,335.654 138.913,331.314     "/>
			</g>
			<g>
				<polygon fill="#1333c3" points="104.84,330.039 104.84,335.654 105.539,335.654 105.539,331.314     "/>
			</g>
			<path fill="#0E538C" d="M113.312,184.625l-0.04,0.381l-0.08,0.84c0,0-0.01,0-0.01,0.01l-0.431,4.08l-0.42,3.93l-0.409,3.93     c0,0-0.301,0.24-0.79,0.609c-0.011,0.01-0.011,0.021-0.021,0.021c-0.07,0.059-0.149,0.119-0.229,0.18     c-0.11,0.08-0.221,0.17-0.341,0.26c-0.369,0.279-0.8,0.59-1.27,0.939c-0.01,0.01-0.01,0.01-0.021,0.01     c-0.02,0.01-0.05,0.031-0.079,0.051c-0.921,0.66-1.98,1.391-3.021,2.02c-2.3,1.41-4.5,2.371-4.91,1.23     c-0.029-0.07-0.04-0.141-0.05-0.211v-0.01c-0.06-0.42,0.05-1.029,0.37-1.869c0.38-1.01,0.68-1.91,0.92-2.75     c0-0.02,0.01-0.051,0.01-0.07c0.03-0.1,0.05-0.189,0.07-0.279c0.15-0.521,0.27-1.021,0.36-1.49     c0.729-3.68,0.25-6.461,0.59-12.711c0.04-0.789,0.1-1.629,0.17-2.539c0.649-8.08,6.54-8.971,9.38-8.91     c-2.53,0-5.01,0.93-6.69,3.08c-2.05,2.619-2.21,5.49-1.659,7.949c0.35,1.631,1,3.09,1.609,4.189c0.05-0.09,0.101-0.17,0.15-0.25     C108.212,184.355,110.512,182.574,113.312,184.625z"/>
			<path fill="#A77860" d="M118.571,201.135c0,0-0.21,0.051-0.55,0.131c-0.71,0.16-2.03,0.43-3.37,0.619     c-0.2,0.029-0.4,0.061-0.6,0.08c-0.04,0.01-0.09,0.01-0.13,0.02c-0.431,0.051-0.86,0.09-1.261,0.102     c-0.55,0.029-1.06,0.02-1.46-0.041c-0.83-0.131-1.26-0.471-0.88-1.18c0.08-0.141,0.141-0.301,0.2-0.471     c0.11-0.279,0.19-0.609,0.25-0.969v-0.012c0-0.01,0-0.01,0-0.02c0.05-0.25,0.08-0.52,0.11-0.789     c0.08-0.061,0.159-0.121,0.229-0.18c0.01,0,0.01-0.012,0.021-0.021c0.489-0.369,0.79-0.609,0.79-0.609l0.409-3.93l0.42-3.93     c2-0.32,4.431-0.361,3.82,1.42c-0.34,1.02-0.21,2.5,0.11,4c0,0.02,0.01,0.029,0.01,0.049c0.09,0.41,0.19,0.82,0.3,1.23     c0.11,0.42,0.24,0.82,0.36,1.211l0.41,1.229l0.01,0.041C118.212,200.314,118.571,201.135,118.571,201.135z"/>
			<path fill="#1333c3" d="M96.521,226.408c0.12,0.977,4.684,0.773,9.554,0.275c0.005,0.02,0.01,0.037,0.016,0.057     c0.104,0.43,0.195,0.812,0.261,1.082c0.071,0.295,0.138,0.607,0.195,0.934c0.489,2.787,0.45,6.711-0.48,10.074     c0,0,12.276,4.576,19.932,0.406c0,0-0.813-6.658,0.408-10.961c1.224-4.305,7.61-19.299,7.61-19.299s-4.63-6.693-8.163-7.918     s-8.088-1.982-8.088-1.982l-6.621,0.244c0,0-5.512,1.436-6.747,1.824c-2.205,0.697-3.058,1.43-4.2,3.707     C98.628,207.982,95.982,222.008,96.521,226.408z M103.483,219.033c0,0,0.603,1.334,1.144,2.844     c-0.441,0.041-0.859,0.043-1.057,0.072C101.826,222.211,103.137,219.994,103.483,219.033z"/>
			<path fill="#A77860" d="M116.991,196.635c-4.069-0.57-4.64-2.709-4.66-2.77c4.351,1.49,4.351,1.49,4.351,1.49     c0,0.02,0.01,0.029,0.01,0.049C116.781,195.814,116.882,196.225,116.991,196.635z"/>
			<path fill="#CFBEB8" d="M103.57,219.086c0,0,0.299,0.629,1.117,3.102c0.83-6.949,0.396-10.568,0.396-10.568     C104.992,215.334,103.57,219.086,103.57,219.086z"/>
			<path fill="#CFBEB8" d="M106.09,226.74c0.104,0.43,0.195,0.812,0.261,1.082c0.071,0.295,0.138,0.607,0.195,0.934     c2.742-1.49,4.713-2.656,4.713-2.656C110.521,226.264,106.09,226.74,106.09,226.74z"/>
			<path fill="#A77860" d="M110.771,199.416l7.797,6.355l-0.804-6.695C117.765,199.076,113.219,198.096,110.771,199.416z"/>
			<polygon fill="#FCD2B1" points="116.315,204.693 118.568,205.771 110.912,198.182    "/>
			<path fill="#0B4870" d="M116.991,217.955c-0.05,1.141-0.16,2.439-0.319,3.83c-0.131,1.141-0.29,2.35-0.471,3.59     c-0.02,0.109-0.029,0.221-0.05,0.33c-0.09,0.57-0.17,1.141-0.26,1.721c-0.01,0.01-0.01,0.02-0.01,0.029     c-0.03,0.16-0.061,0.33-0.08,0.5c-0.03,0.15-0.051,0.311-0.08,0.471c-0.021,0.139-0.05,0.289-0.07,0.43     c-0.35,2.059-0.729,4.1-1.09,5.99c-0.44,2.229-0.85,4.25-1.19,5.789c-0.069,0.35-0.14,0.67-0.199,0.971     c-0.25,1.16-1.44,1.85-2.57,1.5l-6.62-2.07l-0.6-0.189l-0.65-0.201c0,0,3.65-9.199,3-13.869c0.01-0.02,0-0.041,0-0.051     c-0.03-0.189-0.06-0.359-0.1-0.529c-0.37-1.52-0.78-2.951-1.15-4.189c-0.01-0.041-0.03-0.08-0.04-0.121     c0-0.02-0.01-0.039-0.02-0.061c-0.131-0.42-0.261-0.799-0.37-1.17l-0.181-0.549c-0.109-0.311-0.21-0.59-0.29-0.84     c-0.01-0.041-0.02-0.07-0.04-0.102c0,0-0.01-0.01,0-0.01c-0.26-0.76-0.43-1.199-0.43-1.199s-1.97-10.859,3.04-16.07     c0.811-0.84,1.811-1.539,3.021-2.02c0.09-0.029,0.18-0.07,0.27-0.1c0.03-0.01,0.04-0.01,0.04-0.01     c0.22-0.08,0.45-0.15,0.69-0.211c0.199-0.061,0.39-0.109,0.6-0.15c0.02,0,0.04-0.01,0.06-0.01c0.101-0.02,0.19-0.039,0.29-0.049     c0.011-0.012,0.011-0.012,0.021-0.012c0,0,0.17,0.271,0.45,0.762c0.26,0.469,0.64,1.148,1.069,2     c0.57,1.139,1.25,2.568,1.891,4.18C115.932,209.725,117.172,214.006,116.991,217.955z"/>
			<path fill="#0B4870" d="M135.352,210.244l-4.15,5.48l-0.95,1.25l-2.109,2.791c0,1.049,0.02,2.209,0.06,3.439v0.01     c0.011,0.359,0.03,0.711,0.04,1.07c0.05,1.26,0.12,2.561,0.19,3.859c0.05,0.801,0.1,1.6,0.149,2.381     c0.011,0.08,0.011,0.16,0.021,0.24v0.109c0.07,1,0.14,1.961,0.21,2.869c0,0.07,0,0.141,0.01,0.211     c0.26,3.529,0.5,6.131,0.5,6.131l-0.59,0.34l-0.14,0.08l-2.57,1.479c-0.89,0.51-2-0.119-2.021-1.139c0-0.23-0.01-0.48-0.01-0.74     c-0.02-1.07-0.04-2.381-0.069-3.82c-0.021-0.779-0.03-1.609-0.051-2.461c0-0.42-0.01-0.85-0.02-1.289     c-0.01-0.291-0.01-0.59-0.021-0.891v-0.029l-0.029-1.621c-0.011-0.238-0.011-0.479-0.021-0.709c-0.01-0.77-0.02-1.529-0.04-2.291     c-0.01-0.738-0.029-1.469-0.04-2.18c-0.02-0.939-0.04-1.85-0.05-2.709c-0.03-1.361-0.06-2.6-0.08-3.641     c-0.08-4.029-1.71-9.439-3.149-13.48c-1.181-3.279-2.221-5.66-2.221-5.66c0.04,0.012,0.07,0.021,0.11,0.041     c0.08,0.02,0.16,0.049,0.24,0.08l-0.09-0.24l-0.051-0.131c0,0,0.16,0.021,0.44,0.07c1.39,0.24,5.71,1.031,8.11,2.23     c0.67,0.33,1.479,0.99,2.329,1.811c1.341,1.27,2.771,2.93,3.921,4.32C134.451,209.035,135.352,210.244,135.352,210.244z"/>
			<path fill="#A77860" d="M128.82,233.742c0,0-5.436,0.211-6.282,0c-0.844-0.211-6.485-2.658-6.825-5.074     c-0.338-2.416,13.107,2.164,13.107,2.164V233.742z"/>
			<polygon fill="#D3D3D3" points="111.953,226.191 134.016,223.609 124.05,231.719    "/>
			<polygon fill="#F2F2F2" points="124.05,231.719 111.953,227.596 111.953,226.191 124.457,230.203    "/>
			<g>
				<path fill="#A77860" d="M118.362,222.141c0,0,1.824,0,2.847-0.207c0.791-0.162,2.756,0.061,3.259,0.504      c0.499,0.443,2.093,3.535,2.395,3.725c0.3,0.188-0.154,0.627-0.684,0.406c0,0-0.485,1.352-1.685,0.848      c-1.199-0.508-2.014-1.615-2.641-1.809c-0.627-0.195-4.282-1.178-4.282-1.178S117.42,221.811,118.362,222.141z"/>
			</g>
			<polygon fill="#1333c3" points="123.571,205.775 121.552,204.494 118.312,199.365 118.172,199.145 117.352,197.846      118.852,199.145 118.951,199.295    "/>
			<polygon fill="#FCD2B1" points="121.548,204.492 118.568,205.771 117.765,199.076 117.348,197.842    "/>
			<path fill="#0B4870" d="M144.251,226.555c0,0,0.011,0.6-0.149,1.451c-0.14,0.799-0.45,1.83-1.07,2.76     c-1.1,1.648-11.45,2.889-14.21,3.189c-0.43,0.051-0.67,0.07-0.67,0.07c0.03-0.061,0.04-0.15,0.061-0.26     c0.09-0.68,0.01-2.16-0.04-2.811c-0.011-0.199-0.021-0.32-0.021-0.32l0.04-0.01l0.39-0.1L144.251,226.555z"/>
			<polygon fill="#F2F2F2" points="154.941,205.215 149.241,223.945 148.241,227.234 144.102,228.006 128.821,230.836      128.602,230.875 128.172,230.955 125.861,231.375 124.052,231.715 124.462,230.205 124.642,229.525 125.182,227.506      125.932,224.715 125.981,224.545 129.342,212.045 130.481,207.795 132.951,207.535 133.212,207.506    "/>
			<polygon fill="#1333c3" points="110.912,198.182 116.315,204.693 113.357,207.328 110.168,199.535    "/>
			<path fill="#0B4870" d="M118.411,221.885l-0.05,0.26l-0.45,2.371l-0.12,0.609c0,0-0.609,0.1-1.59,0.25     c-1.21,0.189-3,0.449-4.939,0.721c-0.011,0-0.011,0-0.021,0.01c-0.09,0.01-0.189,0.02-0.279,0.039     c-1.131,0.15-2.301,0.301-3.431,0.441c-0.25,0.02-0.49,0.049-0.729,0.078c-0.101,0.012-0.2,0.021-0.29,0.031     c-0.141,0.01-0.28,0.029-0.42,0.049c-0.12,0.012-0.24,0.021-0.36,0.031c-0.77,0.08-1.5,0.15-2.16,0.189     c0,0-2.46,0.291-4.49,0.291c-1.31,0-2.439-0.121-2.63-0.512c-0.5-0.988,0.16-7.34,1.24-13.059c1.08-5.721,2.19-9.01,3.5-10.781     v-0.01c0.32-0.43,0.97-0.83,1.78-1.199c0.109-0.051,0.21-0.09,0.319-0.141c0.23-0.1,0.471-0.199,0.71-0.279     c2.061-0.781,4.54-1.33,5.271-1.471c0.08-0.02,0.14-0.039,0.17-0.039c0.03-0.01,0.04-0.01,0.04-0.01l-4.29,14.029v0.01     l-0.88,2.859l-0.021,0.09l-0.689,2.24l-0.03,0.102c0,0-0.01,0.029-0.03,0.068c-0.01,0,0,0.01,0,0.01     c-0.17,0.352-0.81,1.75-0.779,2.391c0.02,0.23,0.18,0.33,0.39,0.371c0.15-0.012,0.47-0.041,0.92-0.07l0.32-0.031h0.03     c0.05-0.01,0.09-0.01,0.14-0.01c0.02,0,0.03,0,0.05-0.01h0.12c1.47-0.109,3.65-0.24,5.45-0.25c1.26,0,2.89,0.051,4.37,0.121     c0.779,0.029,1.51,0.068,2.12,0.109C117.712,221.836,118.411,221.885,118.411,221.885z"/>
		</g>
		<g>
			<g>
				<path fill="#EEA987" d="M401.209,176.688c0,0-2.116,3.924-1.067,4.533c0.866,0.506-1.016,4.359-1.262,4.988      c-0.247,0.627,1.57,1.086,1.955,1.49c0.387,0.406,1.531,5.389,3.028,5.539c1.495,0.15,8.237-2.195,10.073-4.104      s3.342-10.529,2.116-14.168C414.829,171.33,404.946,169.83,401.209,176.688z"/>
			</g>
			<g>
				<path fill="#0B4870" d="M400.787,177.537c0,0-4.302-4.354-0.593-6.428c10.584-5.922,13.52,1.42,14.336,1.629      c0.816,0.211,5.443,0.529,3.108,8.656c-2.008,6.98-3.702,7.74-3.702,7.74s-0.084-4.51-0.933-5.129      c-1.326-0.961-4.231-0.729-4.231-0.729s1.385-3.676-0.779-4.199C405.83,178.559,402.978,176.725,400.787,177.537z"/>
			</g>
			<g>
				<path fill="#EEA987" d="M410.655,182.266c0.192-0.506,0.811-2.67,2.668-1.398c1.86,1.273-1.156,5.357-1.481,5.41      S409.05,186.512,410.655,182.266z"/>
			</g>
		</g>
		<g>
			<g>
				<path fill="#EEA987" d="M324.802,200.824c-1.84,1.91-8.58,4.262-10.08,4.111c-1.49-0.15-2.641-5.141-3.03-5.541      c-0.38-0.41-2.2-0.869-1.95-1.49c0.24-0.629,2.13-4.49,1.26-4.99c-0.739-0.43,0.091-2.5,0.65-3.689      c0.23-0.51,0.42-0.85,0.42-0.85c3.74-6.85,13.62-5.35,14.84-1.721C328.142,190.295,326.632,198.914,324.802,200.824z"/>
			</g>
			<g>
				<path fill="#0B4870" d="M328.501,193.086c-2.01,6.979-3.699,7.738-3.699,7.738s-0.07-3.59-0.69-4.799      c-0.08-0.15-0.16-0.26-0.25-0.33c-0.68-0.49-1.77-0.67-2.68-0.721c-0.86-0.061-1.55-0.01-1.55-0.01s1.39-3.67-0.78-4.189      c-2.16-0.52-5.01-2.361-7.2-1.551c0,0-4.31-4.35-0.6-6.42c10.59-5.92,13.52,1.42,14.34,1.631      C326.212,184.645,330.831,184.955,328.501,193.086z"/>
			</g>
			<g>
				<path fill="#EEA987" d="M321.516,193.959c0.192-0.506,0.811-2.672,2.668-1.398c1.86,1.273-1.156,5.357-1.481,5.41      S319.91,198.203,321.516,193.959z"/>
			</g>
		</g>
	</g>
</g>
</svg>